<?xml version="1.0" encoding="UTF-8"?><!DOCTYPE svg PUBLIC "-//W3C//DTD SVG 1.1//EN" "http://www.w3.org/Graphics/SVG/1.1/DTD/svg11.dtd"><svg xmlns="http://www.w3.org/2000/svg"><symbol id="icon-facebook" viewBox="0 0 10 19">
    <title>
        facebook
    </title>
    <path d="M9.766.157v2.946H8.014c-.64 0-1.071.134-1.295.402-.223.268-.335.67-.335 1.205v2.11h3.27l-.435 3.303H6.384v8.471H2.97v-8.47H.123V6.82H2.97V4.387c0-1.384.387-2.457 1.161-3.22C4.904.404 5.934.023 7.222.023c1.093 0 1.941.045 2.544.134z" fill-rule="evenodd"/>
</symbol><symbol id="icon-left" viewBox="0 0 292.359 292.359">
    <path d="M222.979 5.424C219.364 1.807 215.08 0 210.132 0c-4.949 0-9.233 1.807-12.848 5.424L69.378 133.331c-3.615 3.617-5.424 7.898-5.424 12.847s1.809 9.233 5.424 12.847l127.906 127.907c3.614 3.617 7.898 5.428 12.848 5.428 4.948 0 9.232-1.811 12.847-5.428 3.617-3.614 5.427-7.898 5.427-12.847V18.271c-.001-4.949-1.81-9.229-5.427-12.847z"/>
</symbol><symbol id="icon-right" viewBox="0 0 292.359 292.359">
    <path d="M222.979 133.331L95.073 5.424C91.456 1.807 87.178 0 82.226 0s-9.233 1.807-12.85 5.424c-3.617 3.617-5.424 7.898-5.424 12.847v255.813c0 4.948 1.807 9.232 5.424 12.847 3.621 3.617 7.902 5.428 12.85 5.428 4.949 0 9.23-1.811 12.847-5.428l127.906-127.907c3.614-3.613 5.428-7.897 5.428-12.847 0-4.948-1.813-9.229-5.428-12.846z"/>
</symbol></svg>